<?xml version="1.0" encoding="UTF-8"?>
<svg width="794" height="1123" version="1.1" viewBox="0 0 793.70135 1122.52" xml:space="preserve" xmlns="http://www.w3.org/2000/svg"><g transform="matrix(1.33 0 0 -1.33 0 1123)"><path d="m505 476v303h-71v-175l-0.307-128zm-151-144 22.8-66.4c20.7 8.97 39.6 21.2 56.2 36.1v-44.6h71.7v182h-73.9c-5.74-47.2-35.6-87-76.8-107" fill="#707173"/><path d="m317 591 22.9 66.6c-14.7 3.3-29.9 5.1-45.6 5.1-63.2 0-120-28.4-158-73.1l57.6-40.3c25 26.8 60.6 43.7 100 43.7 7.72 0 15.2-0.793 22.6-2.02" fill="#c7d32f"/><path d="m173 518-57.5 40.3c-17.6-30.4-27.7-65.6-27.7-103 0-39.7 11.2-76.8 30.6-108l55.8 42.8c-10.6 19.5-16.6 41.8-16.6 65.5 0 22.7 5.62 44.1 15.4 63" fill="#d87d28"/><path d="m196 360-55.6-42.7c37.9-42.2 92.8-68.7 154-68.7 16.1 0 31.7 1.89 46.7 5.36l-22.9 66.6c-7.74-1.36-15.7-2.2-23.8-2.2-38.6 0-73.4 16-98.3 41.6" fill="#c12a1c"/><path d="m498 476c-1.27 13.4-3.81 26.8-7.83 40.2-18.2 60.5-61.7 106-115 130l-22-66.7c32.9-16.2 59.3-45.4 70.7-83.3 2.01-6.68 3.33-13.4 4.27-20.1z" fill="#1f99d2"/><path d="m505 181h-15.8v-88.8h15.8zm-15.8 10.4h15.8v18.3h-15.8zm-13.3-54.9c0 25.7-20.9 46.6-46.6 46.6-11.9 0-22.7-4.45-30.9-11.8v9.7h-16.1v-118h16v38.3c8.24-7.4 19.1-11.9 31.1-11.9 25.7 0 46.6 20.9 46.6 46.6m-15.7 0c0-17.1-13.8-30.9-30.9-30.9-17.1 0-30.9 13.8-30.9 30.9 0 17.1 13.8 30.9 30.9 30.9 17.1 0 30.9-13.8 30.9-30.9m-124-44.3 35.6 88.8h-16.9l-24-64.8-23.3 64.8h-17.2l33.7-88.8zm-124 38.5h74.7v2.5c0 6.19-0.619 11.7-1.86 16.5-1.24 4.82-3.15 9.24-5.73 13.3-4.36 6.51-9.89 11.6-16.6 15.2s-14 5.45-21.8 5.45c-6.57 0-12.6-1.22-18.2-3.67-5.54-2.45-10.5-6.09-14.9-10.9-4.14-4.47-7.28-9.42-9.4-14.9-2.13-5.44-3.19-11.3-3.19-17.5 0-6.03 1.17-11.9 3.51-17.7 2.34-5.78 5.58-10.9 9.73-15.2 4.41-4.63 9.34-8.1 14.8-10.4 5.43-2.31 11.4-3.47 18-3.47 9.74 0 18.3 2.61 25.6 7.83 7.34 5.22 13.1 12.8 17.2 22.6h-18c-2.58-4.63-6.04-8.21-10.4-10.7-4.33-2.53-9.13-3.79-14.4-3.79-7.37 0-13.7 2.3-19.1 6.9-5.36 4.6-8.7 10.6-10 18m0.485 14.4c1.94 7.1 5.47 12.7 10.6 16.8 5.14 4.12 11.2 6.17 18.2 6.17 6.83 0 12.7-2 17.6-6.01 4.9-4.01 8.34-9.67 10.3-17zm-30.9-9c2e-3 0.177 0.014 0.352 0.014 0.529s-0.012 0.352-0.014 0.529v72.6h-16v-38c-7.56 6.59-17.3 10.7-28 11.3-0.586 0.038-1.17 0.064-1.76 0.081-0.292 5e-3 -0.577 0.04-0.871 0.04-0.12 0-0.238-8e-3 -0.358-9e-3 -0.043 0-0.084 3e-3 -0.127 3e-3 -25.7 0-46.6-20.9-46.6-46.6s20.9-46.6 46.6-46.6c0.12 0 0.237 8e-3 0.357 9e-3 0.043 0 0.085-3e-3 0.128-3e-3 0.107 0 0.21 0.014 0.317 0.015 0.899 0.015 1.79 0.057 2.68 0.122 10.5 0.667 20 4.75 27.4 11.2v-9.14h16.1zm-16.2 0.523c0-17-13.7-30.7-30.6-30.9-17 0.1-30.7 13.9-30.7 30.9 0 17 13.7 30.7 30.6 30.9 17-0.101 30.7-13.9 30.7-30.9" fill="#707173"/></g></svg>
